<svg id="visual" viewBox="0 0 900 600" width="900" height="600" xmlns="http://www.w3.org/2000/svg" xmlns:xlink="http://www.w3.org/1999/xlink" version="1.1"><g stroke-width="1" stroke-linejoin="bevel"><path d="M418 298L297 339L312 473Z" fill="#1d4e6b" stroke="#1d4e6b"></path><path d="M312 473L462 478L418 298Z" fill="#1d4e6b" stroke="#1d4e6b"></path><path d="M163 600L323 600L312 473Z" fill="#297ea6" stroke="#297ea6"></path><path d="M312 473L323 600L462 478Z" fill="#277297" stroke="#277297"></path><path d="M462 478L599 334L418 298Z" fill="#1d4e6b" stroke="#1d4e6b"></path><path d="M323 600L482 600L462 478Z" fill="#15384f" stroke="#15384f"></path><path d="M462 478L628 466L599 334Z" fill="#19435d" stroke="#19435d"></path><path d="M302 129L180 267L297 339Z" fill="#112e42" stroke="#112e42"></path><path d="M297 339L112 438L312 473Z" fill="#112e42" stroke="#112e42"></path><path d="M598 600L628 466L462 478Z" fill="#112e42" stroke="#112e42"></path><path d="M180 267L112 438L297 339Z" fill="#297ea6" stroke="#297ea6"></path><path d="M426 113L302 129L418 298Z" fill="#112e42" stroke="#112e42"></path><path d="M418 298L302 129L297 339Z" fill="#205a7a" stroke="#205a7a"></path><path d="M568 111L426 113L418 298Z" fill="#081a28" stroke="#081a28"></path><path d="M482 600L598 600L462 478Z" fill="#0c2435" stroke="#0c2435"></path><path d="M112 438L163 600L312 473Z" fill="#00101c" stroke="#00101c"></path><path d="M302 129L174 174L180 267Z" fill="#15384f" stroke="#15384f"></path><path d="M0 307L0 484L112 438Z" fill="#1d4e6b" stroke="#1d4e6b"></path><path d="M775 600L711 427L628 466Z" fill="#277297" stroke="#277297"></path><path d="M628 466L711 427L599 334Z" fill="#0c2435" stroke="#0c2435"></path><path d="M599 334L568 111L418 298Z" fill="#277297" stroke="#277297"></path><path d="M746 140L568 111L599 334Z" fill="#246688" stroke="#246688"></path><path d="M711 427L746 306L599 334Z" fill="#246688" stroke="#246688"></path><path d="M0 307L112 438L180 267Z" fill="#081a28" stroke="#081a28"></path><path d="M112 438L0 484L163 600Z" fill="#0c2435" stroke="#0c2435"></path><path d="M0 161L0 307L180 267Z" fill="#277297" stroke="#277297"></path><path d="M426 113L338 0L302 129Z" fill="#246688" stroke="#246688"></path><path d="M302 129L127 0L174 174Z" fill="#15384f" stroke="#15384f"></path><path d="M174 174L0 161L180 267Z" fill="#277297" stroke="#277297"></path><path d="M433 0L338 0L426 113Z" fill="#205a7a" stroke="#205a7a"></path><path d="M568 111L433 0L426 113Z" fill="#0c2435" stroke="#0c2435"></path><path d="M0 484L0 600L163 600Z" fill="#112e42" stroke="#112e42"></path><path d="M598 600L775 600L628 466Z" fill="#112e42" stroke="#112e42"></path><path d="M711 427L900 435L746 306Z" fill="#19435d" stroke="#19435d"></path><path d="M746 306L746 140L599 334Z" fill="#112e42" stroke="#112e42"></path><path d="M568 111L607 0L433 0Z" fill="#246688" stroke="#246688"></path><path d="M900 266L746 140L746 306Z" fill="#0c2435" stroke="#0c2435"></path><path d="M127 0L0 161L174 174Z" fill="#00101c" stroke="#00101c"></path><path d="M746 140L607 0L568 111Z" fill="#205a7a" stroke="#205a7a"></path><path d="M338 0L127 0L302 129Z" fill="#277297" stroke="#277297"></path><path d="M775 600L900 435L711 427Z" fill="#0c2435" stroke="#0c2435"></path><path d="M900 435L900 266L746 306Z" fill="#0c2435" stroke="#0c2435"></path><path d="M746 140L775 0L607 0Z" fill="#112e42" stroke="#112e42"></path><path d="M127 0L0 0L0 161Z" fill="#00101c" stroke="#00101c"></path><path d="M775 600L900 600L900 435Z" fill="#15384f" stroke="#15384f"></path><path d="M900 166L775 0L746 140Z" fill="#081a28" stroke="#081a28"></path><path d="M900 266L900 166L746 140Z" fill="#297ea6" stroke="#297ea6"></path><path d="M900 166L900 0L775 0Z" fill="#297ea6" stroke="#297ea6"></path></g></svg>